# xmcd
#
# Track frame offsets:
#       150
#       16898
#       33589
#       51602
#       84845
#
# Disc length: 2979 seconds
#
# Revision: 0
# Processed by: cddbd v1.5.1PL0 Copyright (c) Steve Scherf et al.
# Submitted via: CD-DA_X-Tractor v0.24
#
DISCID=360ba105
DTITLE=KanYeWest - All Falls Down feat Syleena Johnson
DYEAR=1900
DGENRE=R&B
TTITLE0=All Falls Down - Explicit
TTITLE1=All Falls Down - Edited
TTITLE2=Heavy Hitters (Feat. GLC)
TTITLE3=Get Em High (Feat. Talib Kweli and Common)
TTITLE4=All Falls Down - Video
EXTD=
EXTT0=
EXTT1=
EXTT2=
EXTT3=
EXTT4=
PLAYORDER=
